<?xml version="1.0" standalone="no"?>
<!DOCTYPE svg PUBLIC "-//W3C//DTD SVG 20010904//EN"
 "http://www.w3.org/TR/2001/REC-SVG-20010904/DTD/svg10.dtd">
<svg version="1.0" xmlns="http://www.w3.org/2000/svg"
 width="700.000000pt" height="700.000000pt" viewBox="0 0 700.000000 700.000000"
 preserveAspectRatio="xMidYMid meet">
<metadata>
Created by potrace 1.14, written by Peter Selinger 2001-2017
</metadata>
<g transform="translate(0.000000,700.000000) scale(0.100000,-0.100000)"
fill="#000000" stroke="none">
<path d="M2399 6446 c-2 -2 -35 -7 -74 -10 -234 -21 -656 -137 -925 -253 -345
-149 -708 -395 -802 -542 -45 -72 -36 -121 29 -154 53 -28 79 -22 126 29 23
25 56 60 72 78 87 93 339 254 570 365 104 50 324 135 332 128 2 -2 6 -15 8
-28 3 -13 7 -35 9 -49 3 -14 7 -41 10 -60 11 -73 17 -117 26 -170 33 -195 56
-345 65 -426 5 -42 12 -104 20 -169 6 -53 14 -123 20 -185 3 -27 7 -73 10
-100 13 -129 16 -158 20 -200 11 -100 29 -333 42 -550 16 -276 6 -1040 -14
-1074 -6 -8 -267 -1 -333 10 -243 39 -405 124 -495 260 -58 87 -74 150 -71
269 5 166 72 306 209 436 66 62 139 105 260 150 102 39 123 54 134 97 14 57
-33 122 -89 122 -34 0 -134 -33 -224 -74 -254 -116 -452 -381 -489 -652 -28
-212 38 -417 181 -559 131 -131 344 -220 602 -251 31 -4 66 -8 77 -10 11 -1
64 -3 119 -3 l98 -1 -6 -57 c-3 -32 -8 -68 -10 -79 -3 -12 -7 -39 -11 -60 -48
-305 -118 -564 -187 -696 -117 -219 -313 -431 -528 -571 -148 -95 -290 -150
-385 -149 -225 3 -484 201 -546 416 -10 34 -36 177 -44 244 -12 103 -41 131
-127 123 -9 0 -31 -13 -48 -28 -32 -27 -32 -27 -26 -97 19 -225 64 -369 160
-511 103 -154 274 -272 472 -326 234 -64 468 8 749 231 352 279 511 509 623
903 25 85 73 347 118 634 5 35 10 38 99 48 128 15 343 69 480 120 304 113 626
318 867 552 65 63 67 64 58 32 -17 -63 -20 -94 -20 -189 -1 -215 94 -438 249
-586 179 -172 476 -276 769 -270 l104 3 -6 -81 c-4 -45 -9 -112 -12 -151 -3
-38 -9 -104 -15 -145 -5 -41 -12 -97 -15 -125 -3 -27 -7 -59 -9 -70 -1 -11 -6
-47 -10 -80 -24 -189 -100 -457 -171 -596 -170 -339 -474 -555 -764 -544 -103
3 -179 30 -253 88 -237 187 -364 487 -312 742 9 43 43 134 60 159 51 72 -42
180 -126 146 -68 -29 -138 -216 -143 -386 -15 -422 263 -831 635 -934 93 -25
247 -22 363 9 360 95 678 428 813 851 28 89 59 210 67 264 4 21 8 41 10 45 2
3 7 31 10 61 4 30 8 66 11 80 2 14 13 102 24 195 20 166 23 201 37 395 3 52 7
96 8 97 1 1 20 5 42 9 246 37 537 135 764 256 82 43 315 190 330 207 3 3 39
33 80 65 145 115 306 267 386 366 16 19 31 37 34 40 44 39 192 273 249 395 56
118 121 304 136 390 2 11 12 61 22 110 24 126 24 440 -1 580 -61 338 -204 627
-418 843 -247 250 -533 390 -928 457 -80 14 -377 13 -480 -1 -122 -17 -287
-59 -414 -105 -171 -62 -448 -213 -630 -344 -43 -30 -81 -55 -85 -55 -5 0 -21
18 -36 41 -49 70 -232 236 -342 310 -237 158 -470 244 -798 294 -45 7 -440 17
-446 11z m496 -220 c371 -65 720 -256 916 -502 28 -35 49 -68 47 -73 -1 -5
-21 -29 -43 -53 -94 -101 -175 -222 -175 -261 0 -50 48 -96 100 -97 44 0 75
21 99 68 27 51 112 145 122 135 13 -13 47 -152 55 -229 13 -116 7 -331 -11
-394 -2 -8 -6 -26 -9 -40 -51 -291 -217 -646 -436 -935 -17 -23 -184 -188
-225 -224 -140 -120 -366 -267 -525 -344 -192 -92 -394 -152 -620 -183 l-40
-6 8 124 c14 232 6 871 -13 1108 -2 25 -6 97 -10 160 -3 63 -8 126 -10 140 -2
14 -6 63 -10 110 -3 47 -8 101 -10 120 -2 19 -7 64 -10 100 -3 36 -8 81 -10
100 -3 19 -7 58 -10 85 -3 28 -8 66 -11 85 -2 19 -7 55 -9 79 -2 24 -7 60 -10
80 -2 20 -7 54 -10 76 -2 22 -6 49 -9 60 -2 11 -7 45 -11 75 -7 54 -10 70 -20
120 -2 14 -7 43 -10 65 -3 23 -7 50 -9 60 -2 11 -9 54 -16 95 -6 41 -13 86
-16 100 -14 87 -15 130 -2 131 17 1 35 5 83 17 22 6 54 14 70 16 124 23 209
36 265 42 36 3 67 8 68 9 13 11 381 -4 467 -19z m2725 -130 c19 -4 55 -11 80
-17 25 -5 54 -11 66 -13 99 -19 314 -115 439 -198 106 -70 287 -251 358 -358
94 -142 175 -336 203 -484 33 -172 40 -442 15 -580 -65 -367 -239 -686 -531
-976 -345 -344 -806 -598 -1200 -664 -19 -3 -51 -8 -70 -11 l-35 -5 -1 452
c-1 474 -6 675 -29 1088 -15 257 -23 376 -29 425 -9 64 -37 266 -41 295 -9 57
-25 157 -30 185 -25 137 -119 473 -155 550 -18 39 -51 128 -48 130 10 10 200
88 276 114 81 27 246 63 342 75 48 5 347 -1 390 -8z m-1172 -318 c6 -18 29
-87 52 -153 53 -154 107 -360 135 -520 11 -61 14 -81 19 -115 9 -62 25 -193
30 -245 3 -27 8 -72 10 -100 28 -265 49 -938 50 -1522 0 -194 -3 -355 -6 -359
-13 -13 -207 -12 -285 2 -200 34 -348 101 -451 204 -85 84 -87 87 -128 175
-43 93 -66 191 -65 277 1 135 44 219 138 273 52 30 67 88 38 144 -21 42 -62
55 -113 38 -23 -8 -42 -13 -42 -12 0 2 27 49 61 105 60 102 160 302 174 350 4
14 13 39 20 55 39 88 97 298 114 408 46 294 29 543 -52 758 l-24 65 65 49 c89
67 224 155 238 155 6 0 16 -15 22 -32z"/>
</g>
</svg>
